<svg width="45" height="46" viewBox="0 0 45 46" fill="none" xmlns="http://www.w3.org/2000/svg">
<path d="M17.5775 27.6875H19.9213C19.9834 27.6875 20.043 27.6628 20.087 27.6189C20.1309 27.5749 20.1556 27.5153 20.1556 27.4531V25.5781C20.1556 25.516 20.1309 25.4564 20.087 25.4124C20.043 25.3684 19.9834 25.3438 19.9213 25.3438H17.5775C17.5154 25.3438 17.4557 25.3684 17.4118 25.4124C17.3678 25.4564 17.3431 25.516 17.3431 25.5781V27.4531C17.3431 27.5153 17.3678 27.5749 17.4118 27.6189C17.4557 27.6628 17.5154 27.6875 17.5775 27.6875Z" fill="#F5365C"/>
<path d="M17.5775 24.4062H19.9213C19.9834 24.4062 20.043 24.3816 20.087 24.3376C20.1309 24.2936 20.1556 24.234 20.1556 24.1719V22.2969C20.1556 22.2347 20.1309 22.1751 20.087 22.1311C20.043 22.0872 19.9834 22.0625 19.9213 22.0625H17.5775C17.5154 22.0625 17.4557 22.0872 17.4118 22.1311C17.3678 22.1751 17.3431 22.2347 17.3431 22.2969V24.1719C17.3431 24.234 17.3678 24.2936 17.4118 24.3376C17.4557 24.3816 17.5154 24.4062 17.5775 24.4062Z" fill="#F5365C"/>
<path d="M21.3281 27.6875H23.6719C23.734 27.6875 23.7936 27.6628 23.8376 27.6189C23.8816 27.5749 23.9062 27.5153 23.9062 27.4531V25.5781C23.9062 25.516 23.8816 25.4564 23.8376 25.4124C23.7936 25.3684 23.734 25.3438 23.6719 25.3438H21.3281C21.266 25.3438 21.2064 25.3684 21.1624 25.4124C21.1184 25.4564 21.0938 25.516 21.0938 25.5781V27.4531C21.0938 27.5153 21.1184 27.5749 21.1624 27.6189C21.2064 27.6628 21.266 27.6875 21.3281 27.6875Z" fill="#F5365C"/>
<path d="M21.3281 24.4062H23.6719C23.734 24.4062 23.7936 24.3816 23.8376 24.3376C23.8816 24.2936 23.9062 24.234 23.9062 24.1719V22.2969C23.9062 22.2347 23.8816 22.1751 23.8376 22.1311C23.7936 22.0872 23.734 22.0625 23.6719 22.0625H21.3281C21.266 22.0625 21.2064 22.0872 21.1624 22.1311C21.1184 22.1751 21.0938 22.2347 21.0938 22.2969V24.1719C21.0938 24.234 21.1184 24.2936 21.1624 24.3376C21.2064 24.3816 21.266 24.4062 21.3281 24.4062Z" fill="#F5365C"/>
<path d="M25.0781 24.4062H27.4219C27.484 24.4062 27.5436 24.3816 27.5876 24.3376C27.6316 24.2936 27.6562 24.234 27.6562 24.1719V22.2969C27.6562 22.2347 27.6316 22.1751 27.5876 22.1311C27.5436 22.0872 27.484 22.0625 27.4219 22.0625H25.0781C25.016 22.0625 24.9564 22.0872 24.9124 22.1311C24.8684 22.1751 24.8438 22.2347 24.8438 22.2969V24.1719C24.8438 24.234 24.8684 24.2936 24.9124 24.3376C24.9564 24.3816 25.016 24.4062 25.0781 24.4062Z" fill="#F5365C"/>
<path d="M18.75 19.0156C18.6878 19.0156 18.6282 18.9909 18.5843 18.947C18.5403 18.903 18.5156 18.8434 18.5156 18.7812V15.9687C18.5156 15.9066 18.5403 15.847 18.5843 15.803C18.6282 15.7591 18.6878 15.7344 18.75 15.7344C18.8122 15.7344 18.8718 15.7591 18.9157 15.803C18.9597 15.847 18.9844 15.9066 18.9844 15.9687V18.7812C18.9844 18.8434 18.9597 18.903 18.9157 18.947C18.8718 18.9909 18.8122 19.0156 18.75 19.0156Z" fill="#F5365C"/>
<path d="M28.8281 17.1406H26.9531V18.7812C26.9531 18.9677 26.879 19.1466 26.7472 19.2784C26.6153 19.4103 26.4365 19.4844 26.25 19.4844C26.0635 19.4844 25.8847 19.4103 25.7528 19.2784C25.621 19.1466 25.5469 18.9677 25.5469 18.7812V17.1406H19.4531V18.7812C19.4531 18.9677 19.379 19.1466 19.2472 19.2784C19.1153 19.4103 18.9365 19.4844 18.75 19.4844C18.5635 19.4844 18.3847 19.4103 18.2528 19.2784C18.121 19.1466 18.0469 18.9677 18.0469 18.7812V17.1406H16.1719C15.9854 17.1406 15.8066 17.2147 15.6747 17.3466C15.5428 17.4784 15.4688 17.6573 15.4688 17.8437V28.625C15.4688 28.8115 15.5428 28.9903 15.6747 29.1222C15.8066 29.254 15.9854 29.3281 16.1719 29.3281H28.8281C29.0146 29.3281 29.1934 29.254 29.3253 29.1222C29.4572 28.9903 29.5312 28.8115 29.5312 28.625V17.8437C29.5312 17.6573 29.4572 17.4784 29.3253 17.3466C29.1934 17.2147 29.0146 17.1406 28.8281 17.1406ZM29.0625 28.625C29.0625 28.6872 29.0378 28.7468 28.9939 28.7907C28.9499 28.8347 28.8903 28.8594 28.8281 28.8594H16.1719C16.1097 28.8594 16.0501 28.8347 16.0061 28.7907C15.9622 28.7468 15.9375 28.6872 15.9375 28.625V20.8906H29.0625V28.625Z" fill="#F5365C"/>
<path d="M26.25 19.0156C26.1878 19.0156 26.1282 18.9909 26.0843 18.947C26.0403 18.903 26.0156 18.8434 26.0156 18.7812V15.9687C26.0156 15.9066 26.0403 15.847 26.0843 15.803C26.1282 15.7591 26.1878 15.7344 26.25 15.7344C26.3122 15.7344 26.3718 15.7591 26.4157 15.803C26.4597 15.847 26.4844 15.9066 26.4844 15.9687V18.7812C26.4844 18.8434 26.4597 18.903 26.4157 18.947C26.3718 18.9909 26.3122 19.0156 26.25 19.0156Z" fill="#F5365C"/>
</svg>
