<svg width="61" height="46" viewBox="0 0 61 46" fill="none" xmlns="http://www.w3.org/2000/svg">
<path d="M34.0156 16.4376H26.9722C26.5729 16.4384 26.1776 16.5178 25.809 16.6714C25.4404 16.8249 25.1056 17.0496 24.8238 17.3325C24.542 17.6154 24.3187 17.9511 24.1666 18.3203C24.0146 18.6896 23.9367 19.0851 23.9375 19.4844V19.4966C23.9383 19.896 24.0177 20.2912 24.1713 20.6598C24.3249 21.0284 24.5495 21.3632 24.8324 21.645C25.1154 21.9268 25.451 22.1501 25.8203 22.3022C26.1895 22.4543 26.5851 22.5321 26.9844 22.5313H34.0278C34.4271 22.5305 34.8224 22.4511 35.191 22.2975C35.5596 22.144 35.8944 21.9193 36.1762 21.6364C36.458 21.3535 36.6813 21.0178 36.8334 20.6486C36.9854 20.2793 37.0633 19.8838 37.0625 19.4844V19.4723C37.0617 19.0729 36.9823 18.6777 36.8287 18.3091C36.6752 17.9404 36.4505 17.6057 36.1676 17.3239C35.8846 17.0421 35.549 16.8188 35.1798 16.6667C34.8105 16.5146 34.415 16.4368 34.0156 16.4376ZM26.9844 21.8282C26.5208 21.8282 26.0677 21.6907 25.6823 21.4332C25.2968 21.1757 24.9964 20.8096 24.819 20.3814C24.6416 19.9531 24.5952 19.4818 24.6857 19.0272C24.7761 18.5726 24.9993 18.1549 25.3271 17.8272C25.6549 17.4994 26.0725 17.2762 26.5271 17.1857C26.9818 17.0953 27.453 17.1417 27.8813 17.3191C28.3096 17.4965 28.6756 17.7969 28.9331 18.1823C29.1907 18.5678 29.3281 19.0209 29.3281 19.4844C29.3281 20.106 29.0812 20.7022 28.6417 21.1417C28.2021 21.5813 27.606 21.8282 26.9844 21.8282Z" fill="black" fill-opacity="0.6"/>
<path d="M34.0278 23.4689H26.9844C26.5851 23.4681 26.1895 23.5459 25.8203 23.698C25.451 23.8501 25.1154 24.0734 24.8324 24.3552C24.5495 24.637 24.3249 24.9718 24.1713 25.3404C24.0177 25.709 23.9383 26.1042 23.9375 26.5036V26.5158C23.9367 26.9151 24.0146 27.3106 24.1666 27.6799C24.3187 28.0491 24.542 28.3848 24.8238 28.6677C25.1056 28.9506 25.4404 29.1753 25.809 29.3288C26.1776 29.4824 26.5729 29.5618 26.9722 29.5626H34.0156C34.415 29.5634 34.8105 29.4856 35.1798 29.3335C35.549 29.1814 35.8846 28.9581 36.1676 28.6763C36.4505 28.3945 36.6752 28.0598 36.8287 27.6911C36.9823 27.3225 37.0617 26.9273 37.0625 26.5279V26.5158C37.0633 26.1164 36.9854 25.7209 36.8334 25.3516C36.6813 24.9824 36.458 24.6467 36.1762 24.3638C35.8944 24.0809 35.5596 23.8562 35.191 23.7027C34.8224 23.5491 34.4271 23.4697 34.0278 23.4689ZM34.0156 28.8595C33.5521 28.8595 33.0989 28.722 32.7135 28.4645C32.3281 28.207 32.0277 27.8409 31.8503 27.4127C31.6729 26.9844 31.6265 26.5132 31.7169 26.0585C31.8073 25.6039 32.0306 25.1863 32.3583 24.8585C32.6861 24.5307 33.1037 24.3075 33.5584 24.217C34.013 24.1266 34.4843 24.173 34.9125 24.3504C35.3408 24.5278 35.7069 24.8282 35.9644 25.2136C36.2219 25.5991 36.3594 26.0522 36.3594 26.5158C36.3594 27.1374 36.1125 27.7335 35.6729 28.173C35.2334 28.6126 34.6372 28.8595 34.0156 28.8595Z" fill="black" fill-opacity="0.6"/>
</svg>
