<svg width="45" height="46" viewBox="0 0 45 46" fill="none" xmlns="http://www.w3.org/2000/svg">
<path d="M28.3596 28.8594H27.4221V17.6094C27.4221 17.3504 27.2124 17.1406 26.9534 17.1406H17.8127V16.2031C17.8127 15.9441 18.0225 15.7344 18.2815 15.7344H28.3596C28.6186 15.7344 28.8284 15.9441 28.8284 16.2031V28.3906C28.8284 28.6496 28.6186 28.8594 28.3596 28.8594Z" fill="#F3A4B5"/>
<path d="M26.4846 17.6095H16.6409C16.3819 17.6095 16.1721 17.8193 16.1721 18.0782V29.797C16.1721 30.056 16.3819 30.2657 16.6409 30.2657H26.4846C26.7436 30.2657 26.9534 30.056 26.9534 29.797V18.0782C26.9534 17.8193 26.7436 17.6095 26.4846 17.6095ZM20.6252 26.9845H18.7502C18.6209 26.9845 18.5159 26.8795 18.5159 26.7501C18.5159 26.6207 18.6209 26.5157 18.7502 26.5157H20.6252C20.7546 26.5157 20.8596 26.6207 20.8596 26.7501C20.8596 26.8795 20.7546 26.9845 20.6252 26.9845ZM24.3752 24.172H18.7502C18.6209 24.172 18.5159 24.067 18.5159 23.9376C18.5159 23.8082 18.6209 23.7032 18.7502 23.7032H24.3752C24.5046 23.7032 24.6096 23.8082 24.6096 23.9376C24.6096 24.067 24.5046 24.172 24.3752 24.172ZM24.3752 21.3595H18.7502C18.6209 21.3595 18.5159 21.2545 18.5159 21.1251C18.5159 20.9957 18.6209 20.8907 18.7502 20.8907H24.3752C24.5046 20.8907 24.6096 20.9957 24.6096 21.1251C24.6096 21.2545 24.5046 21.3595 24.3752 21.3595Z" fill="#F3A4B5"/>
</svg>
