<svg width="61" height="46" viewBox="0 0 61 46" fill="none" xmlns="http://www.w3.org/2000/svg">
<path d="M37.6953 21.8984C37.4844 20.6094 36.8281 19.6484 35.7969 19.1328C35.1641 18.8281 34.5078 18.6875 33.8047 18.6875C32.8437 18.6875 31.9531 18.9687 31.1562 19.2266C30.5469 19.4141 30.0312 19.5781 29.6094 19.5781C29.2578 19.5781 29 19.4609 28.8125 19.2266C28.6484 19.0156 28.7656 18.6875 28.8828 18.2891C29.0234 17.7969 29.2109 17.1641 28.8125 16.6484C28.5781 16.3437 28.1797 16.1797 27.7109 16.1797C27.2422 16.1797 26.75 16.3437 26.3516 16.6016C24.4062 17.9375 23.2344 20.1641 23.2344 22.5547C23.2344 26.5859 26.5156 29.8672 30.5469 29.8672C33.8047 29.8672 36.6875 27.6875 37.5781 24.5469C37.6484 24.2187 37.8828 23.0937 37.6953 21.8984ZM25.3437 22.0625C25.3437 21.5469 25.7656 21.125 26.2812 21.125C26.7969 21.125 27.2187 21.5469 27.2187 22.0625C27.2187 22.5781 26.7969 23 26.2812 23C25.7656 23 25.3437 22.5781 25.3437 22.0625ZM27.2187 26.2812C26.7031 26.2812 26.2812 25.8594 26.2812 25.3437C26.2812 24.8281 26.7031 24.4062 27.2187 24.4062C27.7344 24.4062 28.1562 24.8281 28.1562 25.3437C28.1562 25.8594 27.7344 26.2812 27.2187 26.2812ZM30.5 27.6875C29.9844 27.6875 29.5625 27.2656 29.5625 26.75C29.5625 26.2344 29.9844 25.8125 30.5 25.8125C31.0156 25.8125 31.4375 26.2344 31.4375 26.75C31.4375 27.2656 31.0156 27.6875 30.5 27.6875ZM33.7812 23.7031C32.8672 23.7031 32.1406 22.9766 32.1406 22.0625C32.1406 21.1484 32.8672 20.4219 33.7812 20.4219C34.6953 20.4219 35.4219 21.1484 35.4219 22.0625C35.4219 22.9766 34.6953 23.7031 33.7812 23.7031Z" fill="black" fill-opacity="0.6"/>
</svg>
