<svg width="45" height="46" viewBox="0 0 45 46" fill="none" xmlns="http://www.w3.org/2000/svg">
<path d="M17.3439 23.9375V29.5625H27.6564V23.9375" stroke="#5E72E4" stroke-width="1.2" stroke-miterlimit="10" stroke-linecap="square"/>
<path d="M29.5188 20.6562C29.4611 21.172 29.2154 21.6483 28.8285 21.9942C28.4417 22.3402 27.941 22.5313 27.422 22.5312C27.107 22.5264 26.7968 22.4525 26.5133 22.3148C26.2299 22.1771 25.98 21.979 25.7814 21.7344C25.5856 21.9821 25.3363 22.1825 25.0522 22.3205C24.7682 22.4584 24.4566 22.5305 24.1408 22.5312C23.8255 22.5273 23.5151 22.4538 23.2315 22.316C22.9479 22.1783 22.6982 21.9797 22.5002 21.7344C22.3021 21.9797 22.0524 22.1783 21.7688 22.316C21.4853 22.4538 21.1748 22.5273 20.8595 22.5312C20.5437 22.5305 20.2322 22.4584 19.9481 22.3205C19.664 22.1825 19.4147 21.9821 19.2189 21.7344C19.0188 21.9773 18.7686 22.1742 18.4855 22.3118C18.2024 22.4493 17.893 22.5241 17.5783 22.5312C17.0594 22.5313 16.5586 22.3402 16.1718 21.9942C15.785 21.6483 15.5392 21.172 15.4816 20.6562L18.2814 16.4375H26.7189L29.5188 20.6562Z" stroke="#5E72E4" stroke-width="1.2" stroke-miterlimit="10" stroke-linecap="square"/>
<path d="M21.0939 29.5625V25.8125H23.9064V29.5625" stroke="#5E72E4" stroke-width="1.2" stroke-miterlimit="10"/>
</svg>
