<svg width="45" height="46" viewBox="0 0 45 46" fill="none" xmlns="http://www.w3.org/2000/svg">
<path d="M25.7812 16.297L22.7344 17.9142V29.7032L25.7812 28.0861V16.297Z" fill="#5E72E4"/>
<path d="M22.2656 17.9142L19.2188 16.297V28.0861L22.2656 29.7032V17.9142Z" fill="#5E72E4"/>
<path d="M18.75 16.297L15.3516 18.1017C15.2812 18.1486 15.2344 18.2189 15.2344 18.3126V29.5626C15.2344 29.6564 15.2812 29.7267 15.3516 29.7736C15.4219 29.8204 15.5156 29.8204 15.5859 29.7736L18.75 28.0861V16.297Z" fill="#5E72E4"/>
<path d="M29.6484 18.1017L26.25 16.297V28.0861L29.4141 29.7736C29.4844 29.8204 29.5781 29.8204 29.6484 29.7736C29.7188 29.7267 29.7656 29.6564 29.7656 29.5626V18.3126C29.7656 18.2189 29.7188 18.1486 29.6484 18.1017Z" fill="#5E72E4"/>
</svg>
