<svg width="61" height="46" viewBox="0 0 61 46" fill="none" xmlns="http://www.w3.org/2000/svg">
<path d="M29.9874 17.7265C28.904 17.4865 27.7723 17.5967 26.7555 18.0411C25.7386 18.4855 24.8891 19.2412 24.3294 20.1994C24.3032 20.2441 24.2927 20.2962 24.2993 20.3475C24.3059 20.3989 24.3293 20.4466 24.3659 20.4832L25.8894 22.0066C26.9691 20.331 28.3603 18.8781 29.9874 17.7265Z" fill="black" fill-opacity="0.6"/>
<path d="M35.7736 23.5134C36.0135 24.5968 35.9034 25.7285 35.459 26.7453C35.0146 27.7621 34.2588 28.6116 33.3007 29.1714C33.256 29.1975 33.2039 29.2081 33.1525 29.2015C33.1012 29.1949 33.0535 29.1714 33.0168 29.1349L31.4934 27.6114C33.169 26.5316 34.622 25.1405 35.7736 23.5134Z" fill="black" fill-opacity="0.6"/>
<path d="M26.7388 26.7617C26.4309 26.4545 26.0136 26.282 25.5787 26.282C25.1437 26.282 24.7265 26.4545 24.4185 26.7617C23.6631 27.5169 23.4775 29.6858 23.4693 29.7776C23.4666 29.81 23.4707 29.8425 23.4813 29.8732C23.4919 29.9039 23.5087 29.9321 23.5308 29.9559C23.5528 29.9798 23.5795 29.9988 23.6093 30.0117C23.6391 30.0247 23.6712 30.0313 23.7037 30.0312C23.71 30.0312 23.7166 30.0312 23.7229 30.0312C23.8148 30.0237 25.9837 29.8381 26.7388 29.0827C27.0462 28.7747 27.2189 28.3574 27.2189 27.9222C27.2189 27.4871 27.0462 27.0697 26.7388 26.7617Z" fill="black" fill-opacity="0.6"/>
<path d="M36.3637 21.0313C37.0499 19.5132 37.446 17.8802 37.5316 16.2165C37.5335 16.1837 37.5284 16.1508 37.5168 16.12C37.5051 16.0892 37.4871 16.0613 37.4639 16.0379C37.4405 16.0146 37.4126 15.9963 37.3818 15.9844C37.351 15.9725 37.318 15.9672 37.285 15.9688C35.6166 16.0464 33.9776 16.4377 32.4541 17.1224L36.3637 21.0313Z" fill="black" fill-opacity="0.6"/>
<path d="M32.0068 17.3381C27.3826 19.6525 25.5535 24.0534 25.5301 24.1115C25.513 24.1541 25.5087 24.2009 25.5179 24.2459C25.5272 24.2909 25.5494 24.3322 25.5819 24.3646L29.1355 27.9185C29.1681 27.9512 29.2097 27.9735 29.255 27.9826C29.3003 27.9917 29.3472 27.9873 29.39 27.9698C29.4479 27.9464 33.8274 26.096 36.1473 21.4776L32.0068 17.3381ZM31.2034 23.7032C30.9252 23.7032 30.6533 23.6208 30.4221 23.4662C30.1908 23.3117 30.0106 23.0921 29.9041 22.8351C29.7977 22.5782 29.7699 22.2954 29.8241 22.0226C29.8784 21.7498 30.0123 21.4993 30.209 21.3026C30.4057 21.1059 30.6562 20.972 30.929 20.9178C31.2018 20.8635 31.4845 20.8913 31.7415 20.9978C31.9985 21.1042 32.2181 21.2845 32.3726 21.5157C32.5271 21.747 32.6096 22.0188 32.6096 22.297C32.6096 22.6699 32.4614 23.0276 32.1977 23.2913C31.934 23.5551 31.5763 23.7032 31.2034 23.7032Z" fill="black" fill-opacity="0.6"/>
</svg>
