<svg width="45" height="46" viewBox="0 0 45 46" fill="none" xmlns="http://www.w3.org/2000/svg">
<path d="M26.0156 16.4375H18.9722C18.5729 16.4383 18.1776 16.5177 17.809 16.6713C17.4404 16.8249 17.1056 17.0495 16.8238 17.3324C16.542 17.6154 16.3187 17.951 16.1666 18.3203C16.0146 18.6895 15.9367 19.0851 15.9375 19.4844V19.4966C15.9383 19.8959 16.0177 20.2911 16.1713 20.6598C16.3249 21.0284 16.5495 21.3631 16.8324 21.6449C17.1154 21.9267 17.451 22.1501 17.8203 22.3021C18.1895 22.4542 18.5851 22.5321 18.9844 22.5313H26.0278C26.4271 22.5305 26.8224 22.451 27.191 22.2975C27.5596 22.1439 27.8944 21.9193 28.1762 21.6363C28.458 21.3534 28.6813 21.0177 28.8334 20.6485C28.9854 20.2793 29.0633 19.8837 29.0625 19.4844V19.4722C29.0617 19.0729 28.9823 18.6776 28.8287 18.309C28.6752 17.9404 28.4505 17.6056 28.1676 17.3238C27.8846 17.042 27.549 16.8187 27.1798 16.6666C26.8105 16.5146 26.415 16.4367 26.0156 16.4375ZM18.9844 21.8281C18.5208 21.8281 18.0677 21.6907 17.6823 21.4331C17.2968 21.1756 16.9964 20.8096 16.819 20.3813C16.6416 19.953 16.5952 19.4818 16.6857 19.0271C16.7761 18.5725 16.9993 18.1549 17.3271 17.8271C17.6549 17.4993 18.0725 17.2761 18.5271 17.1857C18.9818 17.0952 19.453 17.1416 19.8813 17.319C20.3096 17.4964 20.6756 17.7968 20.9331 18.1823C21.1907 18.5677 21.3281 19.0208 21.3281 19.4844C21.3281 20.106 21.0812 20.7021 20.6417 21.1417C20.2021 21.5812 19.606 21.8281 18.9844 21.8281Z" fill="#11CDEF"/>
<path d="M26.0278 23.4689H18.9844C18.5851 23.4681 18.1895 23.5459 17.8203 23.698C17.451 23.8501 17.1154 24.0734 16.8324 24.3552C16.5495 24.637 16.3249 24.9718 16.1713 25.3404C16.0177 25.709 15.9383 26.1042 15.9375 26.5036V26.5158C15.9367 26.9151 16.0146 27.3106 16.1666 27.6799C16.3187 28.0491 16.542 28.3848 16.8238 28.6677C17.1056 28.9506 17.4404 29.1753 17.809 29.3288C18.1776 29.4824 18.5729 29.5618 18.9722 29.5626H26.0156C26.415 29.5634 26.8105 29.4856 27.1798 29.3335C27.549 29.1814 27.8846 28.9581 28.1676 28.6763C28.4505 28.3945 28.6752 28.0598 28.8287 27.6911C28.9823 27.3225 29.0617 26.9273 29.0625 26.5279V26.5158C29.0633 26.1164 28.9854 25.7209 28.8334 25.3516C28.6813 24.9824 28.458 24.6467 28.1762 24.3638C27.8944 24.0809 27.5596 23.8562 27.191 23.7027C26.8224 23.5491 26.4271 23.4697 26.0278 23.4689ZM26.0156 28.8595C25.5521 28.8595 25.0989 28.722 24.7135 28.4645C24.3281 28.207 24.0277 27.8409 23.8503 27.4127C23.6729 26.9844 23.6265 26.5132 23.7169 26.0585C23.8073 25.6039 24.0306 25.1863 24.3583 24.8585C24.6861 24.5307 25.1037 24.3075 25.5584 24.217C26.013 24.1266 26.4843 24.173 26.9125 24.3504C27.3408 24.5278 27.7069 24.8282 27.9644 25.2136C28.2219 25.5991 28.3594 26.0522 28.3594 26.5158C28.3594 27.1374 28.1125 27.7335 27.6729 28.173C27.2334 28.6126 26.6372 28.8595 26.0156 28.8595Z" fill="#11CDEF"/>
</svg>
