<svg width="45" height="46" viewBox="0 0 45 46" fill="none" xmlns="http://www.w3.org/2000/svg">
<path d="M29.0623 19.5625H26.5623V26.4375C26.5623 26.7828 26.2826 27.0625 25.9373 27.0625H19.0623V29.5625C19.0623 29.9078 19.3419 30.1875 19.6873 30.1875H29.0623C29.4076 30.1875 29.6873 29.9078 29.6873 29.5625V20.1875C29.6873 19.8422 29.4076 19.5625 29.0623 19.5625Z" fill="#FB6340"/>
<path d="M25.3119 26.4374H15.9369C15.5916 26.4374 15.3119 26.1577 15.3119 25.8124V16.4374C15.3119 16.0921 15.5916 15.8124 15.9369 15.8124H25.3119C25.6572 15.8124 25.9369 16.0921 25.9369 16.4374V25.8124C25.9369 26.1577 25.6572 26.4374 25.3119 26.4374Z" fill="#FB6340"/>
</svg>
