<svg width="45" height="46" viewBox="0 0 45 46" fill="none" xmlns="http://www.w3.org/2000/svg">
<path d="M28.3594 19.0156H16.6406C16.3816 19.0156 16.1719 19.2254 16.1719 19.4844V29.3281C16.1719 29.5871 16.3816 29.7969 16.6406 29.7969H28.3594C28.6184 29.7969 28.8281 29.5871 28.8281 29.3281V19.4844C28.8281 19.2254 28.6184 19.0156 28.3594 19.0156ZM25.0781 23.4688C25.0781 23.5984 24.9731 23.7031 24.8438 23.7031H20.1562C20.0269 23.7031 19.9219 23.5984 19.9219 23.4688V22.2969C19.9219 22.1673 20.0269 22.0625 20.1562 22.0625C20.2856 22.0625 20.3906 22.1673 20.3906 22.2969V23.2344H24.6094V22.2969C24.6094 22.1673 24.7144 22.0625 24.8438 22.0625C24.9731 22.0625 25.0781 22.1673 25.0781 22.2969V23.4688Z" fill="#2DCE89"/>
<path d="M27.1875 17.375H17.8125C17.6831 17.375 17.5781 17.48 17.5781 17.6094V18.5469H27.4219V17.6094C27.4219 17.48 27.3169 17.375 27.1875 17.375Z" fill="#2DCE89"/>
<path d="M25.7812 16.2031H19.2188C19.0894 16.2031 18.9844 16.3081 18.9844 16.4375V16.9062H26.0156V16.4375C26.0156 16.3081 25.9106 16.2031 25.7812 16.2031Z" fill="#2DCE89"/>
</svg>
